<svg xmlns="http://www.w3.org/2000/svg" viewBox="0 0 96 96" role="img" aria-label="Lupercus wolf logo"><path fill="#f7efe5" fill-rule="evenodd" d="M 47.5 95.0 L 46.5 93.0 L 44.5 92.0 L 43.0 88.5 L 42.0 90.5 L 40.5 90.0 L 40.5 86.0 L 37.5 85.0 L 38.5 84.0 L 38.0 82.5 L 35.0 86.5 L 34.5 81.0 L 33.0 80.5 L 31.0 81.5 L 31.0 78.5 L 28.5 80.0 L 28.5 78.0 L 30.5 75.0 L 27.0 75.5 L 26.5 74.0 L 29.5 70.0 L 25.5 72.0 L 26.5 66.0 L 24.0 67.5 L 22.5 67.0 L 23.0 62.5 L 20.0 64.5 L 19.0 60.5 L 17.0 62.5 L 16.0 57.5 L 13.0 60.5 L 12.0 58.5 L 11.0 60.5 L 9.5 59.0 L 11.5 54.0 L 10.5 52.0 L 10.5 50.0 L 12.5 47.0 L 11.5 46.0 L 13.5 44.0 L 12.5 42.0 L 17.5 37.0 L 14.0 38.5 L 13.5 37.0 L 14.5 35.0 L 13.0 35.5 L 12.5 34.0 L 16.0 30.5 L 18.5 30.0 L 17.5 28.0 L 18.5 22.0 L 16.5 18.0 L 16.5 14.0 L 17.5 13.0 L 15.5 12.0 L 17.5 10.0 L 16.5 7.0 L 18.5 7.0 L 18.5 5.0 L 17.0 4.5 L 16.5 3.0 L 19.5 3.0 L 16.5 0.0 Z M 18.5 0.0 L 26.0 2.5 L 36.0 10.5 L 39.0 9.5 L 41.0 11.5 L 41.0 8.5 L 44.0 10.5 L 44.5 9.0 L 46.0 9.5 L 47.0 7.5 L 48.5 8.0 L 49.0 10.5 L 50.0 8.5 L 51.0 8.5 L 52.0 10.5 L 54.0 8.5 L 54.0 11.5 L 57.0 9.5 L 59.0 10.5 L 71.0 1.5 L 76.5 0.0 Z M 78.5 0.0 L 78.0 1.5 L 75.5 3.0 L 77.0 3.5 L 78.0 2.5 L 78.5 4.0 L 76.5 7.0 L 79.5 7.0 L 77.5 10.0 L 79.5 11.0 L 78.5 13.0 L 78.5 20.0 L 76.5 23.0 L 77.5 24.0 L 77.5 30.0 L 83.5 35.0 L 80.5 35.0 L 82.5 38.0 L 82.0 39.5 L 79.0 36.5 L 78.5 38.0 L 81.5 40.0 L 82.5 42.0 L 83.5 49.0 L 85.5 52.0 L 83.5 53.0 L 85.5 56.0 L 85.5 60.0 L 83.0 58.5 L 82.0 60.5 L 79.0 57.5 L 78.5 62.0 L 77.0 61.5 L 76.0 64.5 L 73.0 62.5 L 72.5 67.0 L 69.5 67.0 L 69.5 70.0 L 70.5 71.0 L 69.0 72.5 L 67.0 69.5 L 66.5 70.0 L 68.5 74.0 L 68.0 75.5 L 65.5 75.0 L 66.5 80.0 L 65.0 79.5 L 64.0 81.5 L 61.5 81.0 L 61.5 85.0 L 60.0 86.5 L 58.5 83.0 L 57.0 82.5 L 57.5 85.0 L 55.5 86.0 L 55.5 90.0 L 54.0 90.5 L 52.0 88.5 L 51.5 91.0 L 48.5 95.0 Z M 68.5 8.0 L 69.0 6.5 L 67.5 8.0 L 68.5 8.0 Z M 41.5 18.0 L 41.5 16.0 L 40.0 14.5 L 36.0 12.5 L 32.0 12.5 L 28.0 8.5 L 27.5 9.0 L 32.0 13.5 L 38.0 14.5 L 40.5 18.0 L 41.5 18.0 Z M 65.5 12.0 L 64.5 12.0 L 65.5 12.0 Z M 48.5 18.0 L 49.0 16.5 L 50.0 17.5 L 50.5 16.0 L 53.5 14.0 L 53.0 12.5 L 51.0 13.5 L 50.0 12.5 L 49.0 13.5 L 48.0 12.5 L 47.0 13.5 L 42.5 13.0 L 45.0 17.5 L 47.0 16.5 L 47.5 18.0 L 48.5 18.0 Z M 66.5 29.0 L 65.5 27.0 L 66.0 25.5 L 65.0 26.5 L 61.5 26.0 L 61.5 23.0 L 62.5 22.0 L 62.0 17.5 L 60.0 16.5 L 58.5 18.0 L 60.0 17.5 L 61.5 19.0 L 59.0 22.5 L 56.0 22.5 L 54.5 21.0 L 54.5 17.0 L 61.5 13.0 L 60.0 12.5 L 56.0 14.5 L 53.5 17.0 L 53.5 24.0 L 51.5 27.0 L 55.0 25.5 L 56.0 27.5 L 58.0 25.5 L 58.5 27.0 L 60.0 26.5 L 61.0 28.5 L 64.0 27.5 L 66.5 29.0 Z M 63.5 13.0 L 62.5 13.0 L 63.5 13.0 Z M 74.5 28.0 L 75.5 27.0 L 74.5 22.0 L 76.5 20.0 L 76.0 12.5 L 75.5 19.0 L 73.0 21.5 L 69.5 20.0 L 71.0 22.5 L 73.0 22.5 L 74.5 24.0 L 74.5 27.0 L 72.5 28.0 L 74.5 28.0 Z M 22.5 28.0 L 20.5 25.0 L 22.0 22.5 L 24.0 22.5 L 25.5 21.0 L 25.5 20.0 L 23.0 21.5 L 21.5 21.0 L 19.5 19.0 L 19.0 13.5 L 18.5 19.0 L 20.5 22.0 L 19.5 26.0 L 22.5 28.0 Z M 29.5 29.0 L 31.0 27.5 L 34.0 28.5 L 34.5 27.0 L 36.0 27.5 L 37.0 25.5 L 40.0 27.5 L 40.0 25.5 L 44.5 27.0 L 41.5 23.0 L 41.0 19.5 L 39.0 22.5 L 36.0 22.5 L 34.5 21.0 L 33.5 19.0 L 36.5 17.0 L 35.0 16.5 L 32.5 18.0 L 32.5 21.0 L 34.5 25.0 L 33.0 26.5 L 29.0 25.5 L 29.5 28.0 L 28.5 29.0 L 29.5 29.0 Z M 42.5 44.0 L 43.5 35.0 L 41.0 31.5 L 42.5 36.0 L 41.0 36.5 L 38.5 35.0 L 40.5 38.0 L 40.5 43.0 L 42.5 44.0 Z M 53.5 44.0 L 54.5 43.0 L 54.5 39.0 L 58.5 34.0 L 56.0 34.5 L 54.0 36.5 L 54.0 32.5 L 51.5 36.0 L 53.5 43.0 L 52.5 44.0 L 53.5 44.0 Z M 34.5 38.0 L 37.5 37.0 L 34.0 34.5 L 33.5 36.0 L 31.5 37.0 L 34.5 38.0 Z M 61.5 38.0 L 64.5 36.0 L 62.0 36.5 L 62.5 35.0 L 61.0 34.5 L 57.5 37.0 L 61.5 38.0 Z M 83.5 55.0 L 78.5 48.0 L 79.0 46.5 L 81.5 48.0 L 77.5 43.0 L 79.5 42.0 L 73.0 36.5 L 76.5 43.0 L 72.5 41.0 L 77.5 47.0 L 77.0 48.5 L 74.0 45.5 L 74.5 48.0 L 83.0 55.5 L 83.5 55.0 Z M 13.5 54.0 L 19.0 50.5 L 21.5 47.0 L 19.0 48.5 L 17.5 48.0 L 21.5 43.0 L 21.0 41.5 L 19.5 42.0 L 21.5 39.0 L 21.0 37.5 L 15.5 42.0 L 17.5 43.0 L 13.5 48.0 L 16.5 48.0 L 12.5 54.0 L 13.5 54.0 Z M 39.5 48.0 L 40.5 46.0 L 39.0 43.5 L 37.0 43.5 L 32.0 38.5 L 29.5 40.0 L 32.0 40.5 L 36.0 46.5 L 39.0 45.5 L 37.5 48.0 L 39.5 48.0 Z M 59.5 46.0 L 63.5 41.0 L 63.0 39.5 L 55.5 45.0 L 58.0 46.5 L 59.5 46.0 Z M 66.5 40.0 L 64.5 40.0 L 66.5 40.0 Z M 38.5 41.0 L 36.5 41.0 L 38.5 41.0 Z M 67.5 42.0 L 66.5 42.0 L 67.5 42.0 Z M 19.0 43.5 L 19.0 42.5 L 19.0 43.5 Z M 48.5 90.0 L 48.5 86.0 L 50.5 87.0 L 51.0 82.5 L 53.0 86.5 L 54.0 80.5 L 55.0 82.5 L 56.0 79.5 L 59.0 81.5 L 60.0 77.5 L 62.5 78.0 L 61.5 75.0 L 64.5 76.0 L 62.5 72.0 L 65.5 72.0 L 64.5 68.0 L 67.5 68.0 L 68.0 63.5 L 70.0 64.5 L 71.5 64.0 L 70.0 60.5 L 74.5 61.0 L 73.5 58.0 L 76.5 58.0 L 74.5 55.0 L 79.5 55.0 L 71.0 47.5 L 67.0 46.5 L 65.5 49.0 L 67.0 48.5 L 68.5 50.0 L 66.5 52.0 L 68.5 55.0 L 68.5 57.0 L 67.0 58.5 L 66.5 56.0 L 63.0 53.5 L 64.5 56.0 L 63.0 58.5 L 61.0 55.5 L 58.0 54.5 L 57.5 59.0 L 58.5 60.0 L 58.5 65.0 L 57.0 66.5 L 56.5 59.0 L 52.5 54.0 L 51.5 51.0 L 52.5 50.0 L 50.0 47.5 L 49.5 49.0 L 50.5 51.0 L 49.5 52.0 L 49.5 55.0 L 52.5 58.0 L 52.5 60.0 L 49.5 61.0 L 54.5 65.0 L 54.5 68.0 L 51.0 71.5 L 44.0 71.5 L 41.5 69.0 L 41.5 64.0 L 46.5 61.0 L 43.5 60.0 L 43.5 57.0 L 45.0 56.5 L 46.5 54.0 L 45.5 49.0 L 43.5 50.0 L 42.5 53.0 L 43.5 54.0 L 39.5 58.0 L 38.0 66.5 L 37.5 58.0 L 38.5 57.0 L 38.5 54.0 L 35.0 55.5 L 32.0 58.5 L 31.5 55.0 L 33.0 52.5 L 28.0 58.5 L 27.5 54.0 L 28.5 52.0 L 27.5 49.0 L 30.5 49.0 L 28.0 46.5 L 26.0 46.5 L 16.5 55.0 L 19.0 55.5 L 20.0 54.5 L 20.5 56.0 L 18.5 58.0 L 22.5 58.0 L 20.5 61.0 L 25.0 60.5 L 25.0 64.5 L 27.0 63.5 L 28.5 64.0 L 27.5 68.0 L 31.5 68.0 L 29.5 72.0 L 33.5 71.0 L 31.5 76.0 L 34.5 75.0 L 33.5 78.0 L 36.5 78.0 L 35.5 82.0 L 36.5 82.0 L 39.0 78.5 L 39.5 83.0 L 40.0 83.5 L 41.0 81.5 L 42.5 82.0 L 42.5 85.0 L 41.5 86.0 L 43.5 85.0 L 44.0 82.5 L 44.5 87.0 L 47.0 86.5 L 47.5 90.0 L 48.5 90.0 Z M 46.5 47.0 L 45.5 47.0 L 46.5 47.0 Z M 57.5 48.0 L 56.0 46.5 L 54.5 47.0 L 56.0 48.5 L 57.5 48.0 Z M 49.0 77.5 L 46.0 77.5 L 42.0 75.5 L 37.5 71.0 L 33.5 66.0 L 33.5 63.0 L 35.0 61.5 L 35.5 63.0 L 34.5 64.0 L 41.0 72.5 L 55.5 73.0 L 52.0 76.5 L 49.0 77.5 Z M 56.0 72.5 L 55.5 71.0 L 61.0 62.5 L 61.5 66.0 L 56.0 72.5 Z M 48.5 68.0 L 49.5 66.0 L 49.0 64.5 L 48.0 66.5 L 47.0 65.5 L 45.5 66.0 L 48.5 68.0 Z M 44.5 66.0 L 43.5 66.0 L 44.5 66.0 Z M 52.5 66.0 L 50.5 66.0 L 52.5 66.0 Z M 45.5 69.0 L 43.5 69.0 L 45.5 69.0 Z M 51.5 69.0 L 50.5 69.0 L 51.5 69.0 Z M 49.5 75.0 L 46.5 75.0 L 49.5 75.0 Z"/></svg>
