<svg width="96" height="96" viewBox="0 0 96 96" fill="none" xmlns="http://www.w3.org/2000/svg" role="img" aria-label="Kodiak Connect mark">
  <rect width="96" height="96" rx="28" fill="#0B111A"/>
  <path d="M48 14C64.569 14 78 27.431 78 44C78 61.673 64.196 75.996 48.637 83.406C48.235 83.598 47.765 83.598 47.363 83.406C31.804 75.996 18 61.673 18 44C18 27.431 31.431 14 48 14Z" fill="url(#paint0_linear)"/>
  <path d="M33.8 42.3C36.566 34.893 42.13 30.4 48 30.4C53.87 30.4 59.434 34.893 62.2 42.3C62.596 43.362 61.792 44.5 60.659 44.5H35.341C34.208 44.5 33.404 43.362 33.8 42.3Z" fill="#0B111A" fill-opacity="0.86"/>
  <path d="M31.5 54.5C35.32 62.099 41.239 66.5 48 66.5C54.761 66.5 60.68 62.099 64.5 54.5" stroke="#0B111A" stroke-opacity="0.86" stroke-width="8" stroke-linecap="round"/>
  <path d="M39.5 48.2H56.5" stroke="#68D6FF" stroke-width="4" stroke-linecap="round"/>
  <path d="M28.5 40C23.667 44.5 23.667 52.5 28.5 57" stroke="#68D6FF" stroke-width="4" stroke-linecap="round"/>
  <path d="M67.5 40C72.333 44.5 72.333 52.5 67.5 57" stroke="#68D6FF" stroke-width="4" stroke-linecap="round"/>
  <defs>
    <linearGradient id="paint0_linear" x1="24" y1="20" x2="73" y2="79" gradientUnits="userSpaceOnUse">
      <stop stop-color="#FFBD63"/>
      <stop offset="0.57" stop-color="#F0A84B"/>
      <stop offset="1" stop-color="#6F4A23"/>
    </linearGradient>
  </defs>
</svg>
